<svg width="35" height="40" viewBox="0 0 35 40" fill="none" xmlns="http://www.w3.org/2000/svg">
<path d="M25.7838 9.36328C28.5003 9.36339 31.3785 10.8517 33.4264 13.4199C26.712 17.1219 27.7991 26.7676 34.5836 29.3477C33.6508 31.4268 33.2013 32.3557 31.9996 34.1973C30.3234 36.7679 27.9596 39.9687 25.0279 39.9922C22.4263 40.0202 21.7552 38.2876 18.2232 38.3086C14.6908 38.3274 13.9539 40.0258 11.3473 40C8.41791 39.9741 6.17782 37.0853 4.50156 34.5146C-0.18803 27.3319 -0.681329 18.9002 2.21055 14.415C4.26778 11.2306 7.51268 9.36835 10.5611 9.36816C13.6634 9.36816 15.616 11.08 18.1852 11.0801C20.6773 11.0801 22.1952 9.36328 25.7838 9.36328ZM24.9977 0C25.3554 2.42957 24.3666 4.81014 23.0621 6.49414C21.6664 8.30022 19.2609 9.69685 16.9303 9.62402C16.5049 7.29798 17.594 4.9011 18.9195 3.29004C20.3736 1.51216 22.8657 0.148322 24.9977 0Z" fill="#1C1C1C"/>
</svg>
