<svg width="17" height="17" viewBox="0 0 17 17" fill="none" xmlns="http://www.w3.org/2000/svg">
<g clip-path="url(#clip0_4484_4952)">
<path fill-rule="evenodd" clip-rule="evenodd" d="M4.44716 1.77284H11.2704L13.1369 3.63937V9.75603L14.1598 10.7789V2.57363H12.5862C12.5199 2.57363 12.4563 2.54729 12.4094 2.5004C12.3625 2.45352 12.3362 2.38993 12.3362 2.32362V0.75H4.44716V1.77284ZM9.49513 6.82131L14.7546 12.0808C14.9597 12.2859 14.9597 12.6205 14.7546 12.8256L11.484 16.0962C11.2789 16.3013 10.9443 16.3013 10.7392 16.0962L7.98154 13.3384L5.47975 10.8367C5.37032 10.7272 5.31807 10.591 5.32622 10.4364L5.45832 7.93909C5.47529 7.61859 5.53816 7.33362 5.76513 7.10666C5.9921 6.87969 6.27704 6.81681 6.59757 6.79984L9.09491 6.66775C9.24951 6.65959 9.38569 6.71184 9.49513 6.82131ZM7.46394 11.2743L9.93279 8.80547C9.956 8.78225 9.98355 8.76384 10.0139 8.75128C10.0442 8.73871 10.0767 8.73225 10.1095 8.73225C10.1424 8.73225 10.1749 8.73871 10.2052 8.75128C10.2355 8.76384 10.2631 8.78225 10.2863 8.80547C10.3095 8.82868 10.3279 8.85623 10.3405 8.88656C10.353 8.91689 10.3595 8.94939 10.3595 8.98222C10.3595 9.01505 10.353 9.04755 10.3405 9.07788C10.3279 9.1082 10.3095 9.13576 10.2863 9.15897L7.81744 11.6278C7.79423 11.6511 7.76668 11.6695 7.73635 11.682C7.70602 11.6946 7.67352 11.7011 7.64069 11.7011C7.60787 11.7011 7.57536 11.6946 7.54503 11.682C7.51471 11.6695 7.48715 11.6511 7.46394 11.6278C7.44073 11.6046 7.42231 11.5771 7.40975 11.5468C7.39719 11.5164 7.39072 11.4839 7.39072 11.4511C7.39072 11.4183 7.39719 11.3858 7.40975 11.3554C7.42231 11.3251 7.44073 11.2976 7.46394 11.2743ZM8.85679 12.6672L11.3257 10.1984C11.3489 10.1752 11.3764 10.1567 11.4068 10.1442C11.4371 10.1316 11.4696 10.1252 11.5024 10.1252C11.5352 10.1252 11.5677 10.1316 11.5981 10.1442C11.6284 10.1567 11.656 10.1752 11.6792 10.1984C11.7024 10.2216 11.7208 10.2491 11.7334 10.2795C11.7459 10.3098 11.7524 10.3423 11.7524 10.3751C11.7524 10.408 11.7459 10.4405 11.7334 10.4708C11.7208 10.5011 11.7024 10.5287 11.6792 10.5519L9.21029 13.0207C9.11266 13.1183 8.95438 13.1183 8.85679 13.0207C8.80992 12.9738 8.78359 12.9103 8.78359 12.844C8.78359 12.7777 8.80992 12.7141 8.85679 12.6672ZM10.2497 14.0601C10.2264 14.0833 10.208 14.1108 10.1955 14.1412C10.1829 14.1715 10.1764 14.204 10.1764 14.2368C10.1764 14.2696 10.1829 14.3021 10.1955 14.3325C10.208 14.3628 10.2264 14.3904 10.2497 14.4136C10.2729 14.4368 10.3004 14.4552 10.3308 14.4678C10.3611 14.4803 10.3936 14.4868 10.4264 14.4868C10.4592 14.4868 10.4917 14.4803 10.5221 14.4678C10.5524 14.4552 10.58 14.4368 10.6032 14.4136L13.072 11.9447C13.0952 11.9215 13.1136 11.8939 13.1262 11.8636C13.1388 11.8333 13.1452 11.8008 13.1452 11.7679C13.1452 11.7351 13.1388 11.7026 13.1262 11.6723C13.1136 11.642 13.0952 11.6144 13.072 11.5912C13.0488 11.568 13.0212 11.5496 12.9909 11.537C12.9606 11.5244 12.9281 11.518 12.8953 11.518C12.8624 11.518 12.8299 11.5244 12.7996 11.537C12.7693 11.5496 12.7417 11.568 12.7185 11.5912L10.2497 14.0601ZM7.30747 7.95669C7.49866 8.14787 7.49863 8.45781 7.30747 8.649C7.11629 8.84019 6.80635 8.84016 6.61516 8.649C6.42397 8.45781 6.42397 8.14787 6.61516 7.95669C6.80635 7.7655 7.11629 7.7655 7.30747 7.95669ZM10.8133 3.84647C10.8133 3.91277 10.8397 3.97636 10.8865 4.02325C10.9334 4.07013 10.997 4.09647 11.0633 4.09647H12.6369V9.256L9.84869 6.46775C9.6396 6.25866 9.36382 6.15288 9.06854 6.16847L6.57119 6.30056C6.12894 6.32394 5.73404 6.43069 5.4116 6.75313C5.08916 7.07553 4.98244 7.47047 4.95904 7.91269L4.82694 10.41C4.81132 10.7053 4.91713 10.9811 5.12619 11.1902L7.27441 13.3384L8.79725 14.8613H2.92432V2.27284H10.8133V3.84647ZM12.3869 3.59647H11.3133V2.52284L12.3869 3.59647ZM12.8362 1L13.9098 2.07362H12.8362V1Z" fill="#9747FF"/>
</g>
<defs>
<clipPath id="clip0_4484_4952">
<rect width="16" height="16" fill="white" transform="translate(0.916504 0.5)"/>
</clipPath>
</defs>
</svg>
