<svg width="17" height="17" viewBox="0 0 17 17" fill="none" xmlns="http://www.w3.org/2000/svg">
<g clip-path="url(#clip0_4484_4942)">
<path d="M14.6086 2.5083H14.0065V14.0229C14.0065 14.7983 13.3756 15.4291 12.6002 15.4291H4.09814V16.0312C4.09814 16.2901 4.30802 16.5 4.56689 16.5H14.6086C14.8674 16.5 15.0773 16.2901 15.0773 16.0312V2.97705C15.0773 2.71814 14.8674 2.5083 14.6086 2.5083Z" fill="#F9C80E"/>
<path d="M13.069 14.0229V0.96875C13.069 0.709875 12.8591 0.5 12.6002 0.5H2.55859C2.29972 0.5 2.08984 0.709875 2.08984 0.96875V14.0229C2.08984 14.2818 2.29972 14.4917 2.55859 14.4917H12.6002C12.8591 14.4917 13.069 14.2818 13.069 14.0229ZM6.40462 11.3419L5.40047 12.346C5.22591 12.5276 4.91209 12.5276 4.73756 12.346L4.2355 11.8439C3.81266 11.3887 4.44294 10.7581 4.89844 11.181L5.06903 11.3517L5.74175 10.679C6.19713 10.256 6.82753 10.8866 6.40462 11.3419ZM6.40462 8.58041L5.40047 9.58456C5.22591 9.76612 4.91209 9.76616 4.73756 9.58456L4.2355 9.08247C3.81266 8.62725 4.44294 7.99659 4.89844 8.41956L5.06903 8.59019L5.74175 7.9175C6.19713 7.49453 6.82753 8.12519 6.40462 8.58041ZM6.40462 5.81897L5.40047 6.82312C5.22591 7.00466 4.91209 7.00472 4.73756 6.82312L4.2355 6.32103C3.81266 5.86581 4.44294 5.23516 4.89844 5.65812L5.06903 5.82875L5.74175 5.15606C6.19713 4.73306 6.82753 5.36372 6.40462 5.81897ZM6.40462 3.0575L5.40047 4.06166C5.22591 4.24322 4.91209 4.24325 4.73756 4.06166L4.2355 3.55956C3.81266 3.10434 4.44294 2.47369 4.89844 2.89666L5.06903 3.06728L5.74175 2.39459C6.19713 1.97159 6.82753 2.60225 6.40462 3.0575ZM10.5919 12.2323H8.08153C7.46109 12.2096 7.45997 11.3179 8.08153 11.2948H10.5919C10.8508 11.2948 11.0607 11.5047 11.0607 11.7635C11.0607 12.0224 10.8508 12.2323 10.5919 12.2323ZM10.5919 9.47084H8.08153C7.46109 9.44819 7.45997 8.55647 8.08153 8.53334H10.5919C10.8508 8.53334 11.0607 8.74322 11.0607 9.00209C11.0607 9.26097 10.8508 9.47084 10.5919 9.47084ZM10.5919 6.70937H8.08153C7.46109 6.68672 7.45997 5.795 8.08153 5.77187H10.5919C10.8508 5.77187 11.0607 5.98175 11.0607 6.24062C11.0607 6.4995 10.8508 6.70937 10.5919 6.70937ZM10.5919 3.94791H8.08153C7.46109 3.92525 7.45997 3.03353 8.08153 3.01041H10.5919C10.8508 3.01041 11.0607 3.22028 11.0607 3.47916C11.0607 3.73803 10.8508 3.94791 10.5919 3.94791Z" fill="#F9C80E"/>
</g>
<defs>
<clipPath id="clip0_4484_4942">
<rect width="16" height="16" fill="white" transform="translate(0.583496 0.5)"/>
</clipPath>
</defs>
</svg>
