<svg width="17" height="17" viewBox="0 0 17 17" fill="none" xmlns="http://www.w3.org/2000/svg">
<g clip-path="url(#clip0_4484_4933)">
<path d="M9.90531 4.07862C10.6451 4.54247 11.1639 5.32739 11.2583 6.23851C11.5685 6.38444 11.9071 6.46025 12.2499 6.46055C13.546 6.46055 14.5965 5.41006 14.5965 4.11416C14.5965 2.81807 13.546 1.76758 12.2499 1.76758C10.9662 1.76798 9.92488 2.7997 9.90531 4.07862ZM8.36801 8.88321C9.6641 8.88321 10.7146 7.83252 10.7146 6.53663C10.7146 5.24073 9.6639 4.19024 8.36801 4.19024C7.07211 4.19024 6.02102 5.24093 6.02102 6.53683C6.02102 7.83272 7.07211 8.88321 8.36801 8.88321ZM9.36339 9.04315H7.37223C5.71552 9.04315 4.36771 10.3912 4.36771 12.0479V14.4829L4.3739 14.5211L4.54163 14.5736C6.12266 15.0676 7.49622 15.2323 8.62679 15.2323C10.835 15.2323 12.1149 14.6027 12.1938 14.5626L12.3505 14.4833H12.3673V12.0479C12.3679 10.3912 11.0201 9.04315 9.36339 9.04315ZM13.2457 6.62069H11.2699C11.2498 7.3836 10.929 8.10765 10.3773 8.63502C11.85 9.07291 12.9274 10.4385 12.9274 12.0515V12.8018C14.8782 12.7304 16.0024 12.1775 16.0765 12.1403L16.2332 12.0608H16.25V9.62501C16.25 7.9685 14.9022 6.62069 13.2457 6.62069ZM4.2505 6.46095C4.70955 6.46095 5.13666 6.32697 5.49847 6.09874C5.612 5.36443 6.00267 4.70156 6.5901 4.24655C6.59249 4.20262 6.59669 4.15909 6.59669 4.11476C6.59669 2.81867 5.54599 1.76818 4.2505 1.76818C2.95421 1.76818 1.90391 2.81867 1.90391 4.11476C1.90391 5.41026 2.95421 6.46095 4.2505 6.46095ZM6.35787 8.63502C5.80929 8.11017 5.48895 7.39074 5.46592 6.63187C5.39264 6.62648 5.32016 6.62069 5.24548 6.62069H3.25452C1.59781 6.62069 0.25 7.9685 0.25 9.62501V12.0604L0.25619 12.098L0.423917 12.1509C1.69226 12.5469 2.82422 12.7294 3.80742 12.7869V12.0515C3.80782 10.4385 4.88487 9.0733 6.35787 8.63502Z" fill="#359AF3"/>
</g>
<defs>
<clipPath id="clip0_4484_4933">
<rect width="16" height="16" fill="white" transform="translate(0.25 0.5)"/>
</clipPath>
</defs>
</svg>
