<svg width="20" height="20" viewBox="0 0 20 20" fill="none" xmlns="http://www.w3.org/2000/svg">
<g clip-path="url(#clip0_6272_1413)">
<path d="M6.66667 4.99984V4.1665C6.66667 2.78579 7.78596 1.6665 9.16667 1.6665H10.8333C12.2141 1.6665 13.3333 2.78579 13.3333 4.1665V4.99984M1.66667 8.62274C1.66667 8.62274 4.26504 10.3535 8.31473 10.7589M18.3333 8.62274C18.3333 8.62274 15.735 10.3535 11.6853 10.7589M5.00001 18.3332H15C16.841 18.3332 18.3333 16.8408 18.3333 14.9998V8.33317C18.3333 6.49222 16.841 4.99984 15 4.99984H5.00001C3.15906 4.99984 1.66667 6.49222 1.66667 8.33317V14.9998C1.66667 16.8408 3.15906 18.3332 5.00001 18.3332Z" stroke="#E9E9EA" stroke-width="1.5" stroke-linecap="round"/>
<path d="M11.6667 10.1331V10.9665C11.6667 10.9748 11.6667 10.9748 11.6667 10.9831C11.6667 11.8915 11.6583 12.6331 10 12.6331C8.34999 12.6331 8.33333 11.8998 8.33333 10.9915V10.1331C8.33333 9.2998 8.33333 9.2998 9.16666 9.2998H10.8333C11.6667 9.2998 11.6667 9.2998 11.6667 10.1331Z" stroke="#E9E9EA" stroke-width="1.5" stroke-miterlimit="10" stroke-linecap="round" stroke-linejoin="round"/>
</g>
<defs>
<clipPath id="clip0_6272_1413">
<rect width="20" height="20" fill="white"/>
</clipPath>
</defs>
</svg>
