<svg width="20" height="20" viewBox="0 0 20 20" fill="none" xmlns="http://www.w3.org/2000/svg">
<path d="M2.37183 10.4969C2.03626 10.366 1.66664 10.6089 1.66664 10.9691V15.313C1.66664 17.154 3.15903 18.6463 4.99997 18.6463H15C16.8409 18.6463 18.3333 17.154 18.3333 15.313V10.9692C18.3333 10.609 17.9637 10.366 17.6281 10.4969C16.5905 10.9017 15.2812 11.3134 13.753 11.5911C13.166 11.6977 12.7403 12.2022 12.4664 12.7322C12.0508 13.5362 11.2116 14.0858 10.2441 14.0858H9.75576C8.78823 14.0858 7.94907 13.5362 7.53348 12.7322C7.25954 12.2022 6.83388 11.6977 6.24689 11.591C4.71872 11.3134 3.40939 10.9016 2.37183 10.4969Z" fill="#328B7F"/>
<path d="M15 5.3125C16.8408 5.3125 18.3328 6.80471 18.333 8.64551C18.333 8.82634 18.244 8.99475 18.0879 9.08594C17.3813 9.49815 15.1937 10.6377 12.0849 11.0234V11.0742C12.0849 12.1787 11.1894 13.0741 10.0849 13.0742H9.91501C8.81049 13.0742 7.91501 12.1788 7.91501 11.0742V11.0234C4.80622 10.6377 2.61859 9.49815 1.91208 9.08594C1.75593 8.99475 1.66696 8.82634 1.66696 8.64551C1.66714 6.80471 3.15913 5.3125 4.99997 5.3125H15ZM9.26266 10.3916C9.15231 10.3916 9.06264 10.4805 9.06247 10.5908V11.248C9.06247 11.6898 9.42059 12.0487 9.86227 12.0488H10.1377C10.5793 12.0486 10.9375 11.6897 10.9375 11.248V10.5908C10.9373 10.4805 10.8476 10.3916 10.7373 10.3916H9.26266Z" fill="#328B7F"/>
<path fill-rule="evenodd" clip-rule="evenodd" d="M9.16653 2.60449C8.131 2.60449 7.29153 3.44396 7.29153 4.47949V5.31283C7.29153 5.658 7.01171 5.93783 6.66653 5.93783C6.32136 5.93783 6.04153 5.658 6.04153 5.31283V4.47949C6.04153 2.7536 7.44064 1.35449 9.16653 1.35449H10.8332C12.5591 1.35449 13.9582 2.7536 13.9582 4.47949V5.31283C13.9582 5.658 13.6784 5.93783 13.3332 5.93783C12.988 5.93783 12.7082 5.658 12.7082 5.31283V4.47949C12.7082 3.44396 11.8687 2.60449 10.8332 2.60449H9.16653Z" fill="#328B7F"/>
</svg>
