<svg width="20" height="20" viewBox="0 0 20 20" fill="none" xmlns="http://www.w3.org/2000/svg">
<path fill-rule="evenodd" clip-rule="evenodd" d="M13.4836 18.3332H6.51638C4.59243 18.3332 3.03275 16.8448 3.03275 15.0088V10.944C3.03275 10.3538 2.78707 9.78783 2.34975 9.3705C1.33651 8.40359 1.46823 6.80154 2.62709 5.99727L7.95104 2.30233C9.17257 1.45456 10.8274 1.45456 12.049 2.30233L17.3729 5.99727C18.5318 6.80154 18.6635 8.40359 17.6503 9.3705C17.2129 9.78783 16.9673 10.3538 16.9673 10.944V15.0088C16.9673 16.8448 15.4076 18.3332 13.4836 18.3332ZM8.33334 14.3748C7.98816 14.3748 7.70834 14.6547 7.70834 14.9998C7.70834 15.345 7.98816 15.6248 8.33334 15.6248H11.6667C12.0119 15.6248 12.2917 15.345 12.2917 14.9998C12.2917 14.6547 12.0119 14.3748 11.6667 14.3748H8.33334Z" fill="#328B7F"/>
</svg>
