<svg width="24" height="24" viewBox="0 0 24 24" fill="none" xmlns="http://www.w3.org/2000/svg">
<g clip-path="url(#clip0_6632_160)">
<path d="M20.8154 3.18457H14.172C13.5339 3.18457 12.9341 3.43305 12.4829 3.88427L3.0874 13.2799C2.63618 13.731 2.3877 14.3309 2.3877 14.9689C2.3877 15.607 2.63618 16.2069 3.0874 16.658L9.73071 23.3012C10.1964 23.7668 10.8081 23.9996 11.4198 23.9996C12.0314 23.9996 12.6431 23.7668 13.1088 23.3011L22.5044 13.9054C22.9556 13.4542 23.2041 12.8544 23.2041 12.2164V5.57323C23.2041 4.25613 22.1326 3.18457 20.8154 3.18457ZM17.6305 11.1469C16.3133 11.1469 15.2418 10.0754 15.2418 8.75824C15.2418 7.4411 16.3133 6.36954 17.6305 6.36954C18.9476 6.36954 20.0192 7.4411 20.0192 8.75824C20.0192 10.0754 18.9476 11.1469 17.6305 11.1469Z" fill="#328B7F"/>
<path d="M19.2231 0H12.5797C11.9416 0 11.3418 0.248484 10.8906 0.699703L1.49511 10.0953C1.04389 10.5465 0.79541 11.1463 0.79541 11.7844C0.79541 12.2835 0.948035 12.7588 1.23022 13.1583C1.42007 12.7874 1.66686 12.4486 1.96161 12.1541L11.3571 2.75855C12.109 2.00662 13.1088 1.59248 14.1722 1.59248H20.8155C21.0472 1.59248 21.274 1.61348 21.4949 1.65169C21.1835 0.694219 20.2831 0 19.2231 0Z" fill="#328B7F"/>
</g>
<defs>
<clipPath id="clip0_6632_160">
<rect width="24" height="24" fill="white"/>
</clipPath>
</defs>
</svg>
