<svg width="24" height="24" viewBox="0 0 24 24" fill="none" xmlns="http://www.w3.org/2000/svg">
<g clip-path="url(#clip0_6632_474)">
<path d="M21.6118 3.32189V2.3887C21.6118 1.07156 20.5403 0 19.2231 0H12.5797C11.9416 0 11.3418 0.248484 10.8906 0.699703L1.49511 10.0953C1.04389 10.5465 0.79541 11.1463 0.79541 11.7844C0.79541 12.4224 1.04389 13.0223 1.49511 13.4735L2.44982 14.4282C2.40878 14.6056 2.38803 14.7872 2.38794 14.9693C2.38794 15.6074 2.63643 16.2073 3.08764 16.6584L9.73091 23.3016C10.1966 23.7672 10.8083 24 11.42 24C12.0316 24 12.6433 23.7672 13.109 23.3015L22.5046 13.9058C22.9558 13.4546 23.2043 12.8548 23.2043 12.2167V5.57363C23.2043 4.53562 22.5386 3.65058 21.6118 3.32189ZM2.62114 12.3474C2.54697 12.2736 2.48816 12.1859 2.44812 12.0892C2.40808 11.9926 2.38761 11.8889 2.38789 11.7843C2.38762 11.6797 2.4081 11.5761 2.44813 11.4794C2.48817 11.3828 2.54697 11.295 2.62114 11.2213L12.0167 1.82569C12.0905 1.75153 12.1783 1.69274 12.2749 1.65271C12.3716 1.61268 12.4752 1.59221 12.5798 1.59248H19.2231C19.6621 1.59248 20.0193 1.94967 20.0193 2.3887V3.18492H14.1722C13.5341 3.18492 12.9343 3.43341 12.4831 3.88462L3.32085 13.047L2.62114 12.3474ZM21.3786 12.7798L11.983 22.1754C11.6724 22.4859 11.1673 22.4858 10.8569 22.1754L4.21363 15.5323C4.13945 15.4585 4.08064 15.3708 4.04061 15.2741C4.00057 15.1775 3.9801 15.0739 3.98038 14.9692C3.98011 14.8646 4.00058 14.761 4.04062 14.6644C4.08065 14.5677 4.13946 14.48 4.21363 14.4062L13.6092 5.01056C13.683 4.9364 13.7707 4.87761 13.8674 4.83758C13.964 4.79755 14.0677 4.77709 14.1723 4.77736H20.8156C21.2546 4.77736 21.6118 5.13455 21.6118 5.57358V12.2167C21.6118 12.4294 21.529 12.6294 21.3786 12.7798Z" fill="#E9E9EA"/>
<path d="M17.6309 6.37012C16.3137 6.37012 15.2422 7.44168 15.2422 8.75882C15.2422 10.076 16.3137 11.1475 17.6309 11.1475C18.948 11.1475 20.0196 10.076 20.0196 8.75882C20.0196 7.44168 18.948 6.37012 17.6309 6.37012ZM17.6309 9.55509C17.1919 9.55509 16.8347 9.1979 16.8347 8.75887C16.8347 8.31984 17.1919 7.96265 17.6309 7.96265C18.0699 7.96265 18.4271 8.31984 18.4271 8.75887C18.4271 9.1979 18.0699 9.55509 17.6309 9.55509Z" fill="#E9E9EA"/>
</g>
<defs>
<clipPath id="clip0_6632_474">
<rect width="24" height="24" fill="white"/>
</clipPath>
</defs>
</svg>
