<svg width="20" height="20" viewBox="0 0 20 20" fill="none" xmlns="http://www.w3.org/2000/svg">
<path d="M13.9583 9.29244V18.2423C15.3686 17.8623 16.9074 16.8061 17.7315 16.183C18.1205 15.8888 18.3333 15.4249 18.3333 14.9373V6.87941C18.3333 6.1682 17.4767 5.75578 16.8864 6.15247C16.3133 6.5376 15.6234 6.9524 14.9186 7.26282C14.9036 7.30799 14.8882 7.35302 14.8725 7.39788C14.6483 8.03659 14.3366 8.69089 13.9583 9.29244Z" fill="#328B7F"/>
<path d="M7.29167 9.97949V15.6965C8.35676 15.7855 9.17838 16.4105 10 17.0356C10.8216 17.6606 11.6433 18.2856 12.7083 18.3746V10.8145C12.0862 11.375 11.297 11.8287 10.385 11.8287C9.56844 11.8287 8.85529 11.4607 8.29757 11.0154C7.92899 10.721 7.59215 10.3651 7.29167 9.97949Z" fill="#328B7F"/>
<path d="M5.49118 5.37305C4.2462 5.83991 2.9863 6.71118 2.26846 7.25395C1.87948 7.54806 1.66667 8.01199 1.66667 8.49965V16.5575C1.66667 17.2687 2.52326 17.6811 3.11356 17.2844C3.94706 16.7243 5.02757 16.1014 6.04167 15.8282V7.78103C5.71525 6.96942 5.50767 6.12548 5.49118 5.37305Z" fill="#328B7F"/>
<path d="M10.385 1.66309C12.4645 1.66311 14.1506 3.28102 14.1506 5.27734C14.1506 5.79234 14.0251 6.40253 13.8069 7.02441C13.179 8.8131 11.7819 10.6992 10.385 10.6992C8.50238 10.6992 6.61942 7.27369 6.61938 5.27734C6.61938 5.13297 6.62861 4.99054 6.64575 4.85059C6.86577 3.05546 8.45595 1.66309 10.385 1.66309ZM10.385 3.92188C9.76115 3.92188 9.25513 4.4279 9.25513 5.05176C9.25536 5.67541 9.7613 6.18066 10.385 6.18066C11.0087 6.18064 11.5147 5.6754 11.5149 5.05176C11.5149 4.42792 11.0088 3.9219 10.385 3.92188Z" fill="#328B7F"/>
</svg>
