<svg width="20" height="20" viewBox="0 0 20 20" fill="none" xmlns="http://www.w3.org/2000/svg">
<g clip-path="url(#clip0_6272_1417)">
<path d="M6.66667 15.6956C5.49058 15.8272 4.12146 16.5964 3.11356 17.2737C2.52326 17.6703 1.66667 17.2579 1.66667 16.5467V8.48887C1.66667 8.00122 1.87948 7.53729 2.26846 7.24317C3.11004 6.60684 4.69666 5.51901 6.13081 5.16064M6.66667 15.6956C9.43193 15.3861 10.5681 18.6635 13.3333 18.354M6.66667 15.6956V7.81565M13.3333 18.354C14.8894 18.1798 16.7834 16.8898 17.7315 16.1728C18.1205 15.8787 18.3333 15.4148 18.3333 14.9271V6.86926C18.3333 6.15805 17.4768 5.74563 16.8864 6.14232C16.0574 6.69947 14.9839 7.31873 13.9744 7.59419M13.3333 18.354V9.34308" stroke="#E9E9EA" stroke-width="1.5"/>
<path d="M14.5516 5.71973C14.5516 7.92887 12.4683 11.7197 10.3849 11.7197C8.3016 11.7197 6.21826 7.92887 6.21826 5.71973C6.21826 3.51059 8.08374 1.71973 10.3849 1.71973C12.6861 1.71973 14.5516 3.51059 14.5516 5.71973Z" stroke="#E9E9EA" stroke-width="1.5"/>
<path d="M11.6349 5.46973C11.6349 6.16008 11.0753 6.71973 10.3849 6.71973C9.69457 6.71973 9.13493 6.16008 9.13493 5.46973C9.13493 4.77937 9.69457 4.21973 10.3849 4.21973C11.0753 4.21973 11.6349 4.77937 11.6349 5.46973Z" stroke="#E9E9EA" stroke-width="1.5"/>
</g>
<defs>
<clipPath id="clip0_6272_1417">
<rect width="20" height="20" fill="white"/>
</clipPath>
</defs>
</svg>
