<svg width="20" height="20" viewBox="0 0 20 20" fill="none" xmlns="http://www.w3.org/2000/svg">
<path d="M10.7071 3.3335H9.29293C8.51192 3.3335 7.87878 3.93045 7.87878 4.66683C7.87878 5.50951 6.97716 6.04525 6.23704 5.64236L6.16187 5.60144C5.48549 5.23325 4.62061 5.45175 4.23011 6.08947L3.52303 7.24417C3.13253 7.8819 3.36427 8.69735 4.04065 9.06554C4.78112 9.46862 4.78112 10.5317 4.04065 10.9348C3.36427 11.303 3.13253 12.1184 3.52303 12.7562L4.23011 13.9109C4.62061 14.5486 5.48549 14.7671 6.16187 14.3989L6.23704 14.358C6.97716 13.9551 7.87878 14.4908 7.87878 15.3335C7.87878 16.0699 8.51192 16.6668 9.29293 16.6668H10.7071C11.4881 16.6668 12.1212 16.0699 12.1212 15.3335C12.1212 14.4908 13.0228 13.9551 13.763 14.358L13.8381 14.3989C14.5145 14.7671 15.3794 14.5486 15.7699 13.9108L16.477 12.7561C16.8675 12.1184 16.6357 11.303 15.9594 10.9348C15.2189 10.5317 15.2189 9.46863 15.9594 9.06555C16.6357 8.69736 16.8675 7.88191 16.477 7.24418L15.7699 6.08948C15.3794 5.45176 14.5145 5.23326 13.8381 5.60145L13.763 5.64237C13.0228 6.04526 12.1212 5.50951 12.1212 4.66683C12.1212 3.93045 11.4881 3.3335 10.7071 3.3335Z" stroke="#E9E9EA" stroke-width="1.5" stroke-linejoin="round"/>
<circle cx="10" cy="10" r="2.5" stroke="#E9E9EA" stroke-width="1.5"/>
</svg>
