<svg width="20" height="20" viewBox="0 0 20 20" fill="none" xmlns="http://www.w3.org/2000/svg">
<path d="M10.707 3.33301C11.488 3.33301 12.1211 3.93061 12.1211 4.66699C12.1213 5.50948 13.0236 6.04542 13.7637 5.64258L13.8389 5.60156C14.5151 5.2336 15.38 5.45135 15.7705 6.08887L16.4775 7.24414C16.8678 7.88175 16.6361 8.69722 15.96 9.06543C15.2195 9.46851 15.2195 10.5315 15.96 10.9346C16.6361 11.3028 16.8678 12.1183 16.4775 12.7559L15.7705 13.9111C15.38 14.5486 14.5151 14.7664 13.8389 14.3984L13.7637 14.3574C13.0236 13.9546 12.1213 14.4905 12.1211 15.333C12.1211 16.0694 11.488 16.667 10.707 16.667H9.29297C8.51205 16.6669 7.8789 16.0693 7.8789 15.333C7.87867 14.4906 6.9773 13.9548 6.2373 14.3574L6.16211 14.3984C5.48587 14.7666 4.62108 14.5486 4.23047 13.9111L3.52344 12.7559C3.13295 12.1181 3.36465 11.3028 4.04101 10.9346C4.78133 10.5315 4.78133 9.46854 4.04101 9.06543C3.36465 8.69724 3.13295 7.88186 3.52344 7.24414L4.23047 6.08887C4.62108 5.45143 5.48586 5.23345 6.16211 5.60156L6.2373 5.64258C6.9773 6.04524 7.87867 5.50941 7.8789 4.66699C7.8789 3.93068 8.51205 3.33311 9.29297 3.33301H10.707ZM10 7.5C8.6194 7.50014 7.5 8.61937 7.5 10C7.5 11.3806 8.6194 12.4999 10 12.5C11.3807 12.5 12.5 11.3807 12.5 10C12.5 8.61929 11.3807 7.5 10 7.5Z" fill="#328B7F"/>
</svg>
