<svg width="20" height="20" viewBox="0 0 20 20" fill="none" xmlns="http://www.w3.org/2000/svg">
<path d="M12.5 11.25C12.5 12.6307 11.3807 13.75 10 13.75C8.61929 13.75 7.5 12.6307 7.5 11.25C7.5 9.86929 8.61929 8.75 10 8.75C11.3807 8.75 12.5 9.86929 12.5 11.25Z" stroke="#1D1F2C" stroke-width="1.5"/>
<ellipse cx="10.0001" cy="5.83333" rx="0.833333" ry="0.833333" fill="#1D1F2C"/>
<path d="M17.5 12.9165V9.58317C17.5 7.28198 15.6345 5.4165 13.3333 5.4165H13.2283C12.8583 3.97881 11.5532 2.9165 10 2.9165C8.4468 2.9165 7.14172 3.97881 6.77168 5.4165H6.66667C4.36548 5.4165 2.5 7.28198 2.5 9.58317V12.9165C2.5 15.2177 4.36548 17.0832 6.66667 17.0832H13.3333C15.6345 17.0832 17.5 15.2177 17.5 12.9165Z" stroke="#1D1F2C" stroke-width="1.5" stroke-linejoin="round"/>
</svg>
