<svg width="18" height="18" viewBox="0 0 18 18" fill="none" xmlns="http://www.w3.org/2000/svg">
<path d="M10.5 6H7.5C5.6385 6 5.25 6.3885 5.25 8.25V16.5H12.75V8.25C12.75 6.3885 12.3615 6 10.5 6Z" stroke="#4A4C56" stroke-linejoin="round"/>
<path d="M8.25 9L9.75 9M8.25 11.25H9.75M8.25 13.5H9.75" stroke="#4A4C56" stroke-linecap="round" stroke-linejoin="round"/>
<path d="M15.75 16.5V6.13923C15.75 5.21801 15.75 4.7574 15.526 4.38725C15.302 4.01709 14.8985 3.8111 14.0916 3.39912L10.8354 1.73652C9.96506 1.29213 9.75 1.44875 9.75 2.42155V5.77763" stroke="#4A4C56" stroke-linecap="round" stroke-linejoin="round"/>
<path d="M2.25 16.5V9.75C2.25 9.1295 2.3795 9 3 9H5.25" stroke="#4A4C56" stroke-linecap="round" stroke-linejoin="round"/>
<path d="M16.5 16.5H1.5" stroke="#4A4C56" stroke-linecap="round" stroke-linejoin="round"/>
</svg>
