<svg width="32" height="32" viewBox="0 0 32 32" fill="none" xmlns="http://www.w3.org/2000/svg">
<path d="M20.0003 5.33317H12.0003C11.6467 5.33317 11.3076 5.1927 11.0575 4.94265C10.8075 4.6926 10.667 4.35346 10.667 3.99984C10.667 3.64622 10.8075 3.30708 11.0575 3.05703C11.3076 2.80698 11.6467 2.6665 12.0003 2.6665H20.0003C20.3539 2.6665 20.6931 2.80698 20.9431 3.05703C21.1932 3.30708 21.3337 3.64622 21.3337 3.99984C21.3337 4.35346 21.1932 4.6926 20.9431 4.94265C20.6931 5.1927 20.3539 5.33317 20.0003 5.33317ZM20.0003 29.3332H12.0003C10.5858 29.3332 9.22928 28.7713 8.22909 27.7711C7.2289 26.7709 6.66699 25.4143 6.66699 23.9998V7.99984H25.3337V23.9998C25.3337 25.4143 24.7718 26.7709 23.7716 27.7711C22.7714 28.7713 21.4148 29.3332 20.0003 29.3332Z" fill="#E63946"/>
<path d="M26.6667 10.6667H5.33333C4.97971 10.6667 4.64057 10.5262 4.39052 10.2761C4.14048 10.0261 4 9.68696 4 9.33333C4 8.97971 4.14048 8.64057 4.39052 8.39052C4.64057 8.14048 4.97971 8 5.33333 8H26.6667C27.0203 8 27.3594 8.14048 27.6095 8.39052C27.8595 8.64057 28 8.97971 28 9.33333C28 9.68696 27.8595 10.0261 27.6095 10.2761C27.3594 10.5262 27.0203 10.6667 26.6667 10.6667Z" fill="#C9273A"/>
<path d="M13.3333 23.9997C12.9797 23.9997 12.6406 23.8592 12.3905 23.6091C12.1405 23.3591 12 23.02 12 22.6663V14.6663C12 14.3127 12.1405 13.9736 12.3905 13.7235C12.6406 13.4735 12.9797 13.333 13.3333 13.333C13.687 13.333 14.0261 13.4735 14.2761 13.7235C14.5262 13.9736 14.6667 14.3127 14.6667 14.6663V22.6663C14.6667 23.02 14.5262 23.3591 14.2761 23.6091C14.0261 23.8592 13.687 23.9997 13.3333 23.9997ZM18.6667 23.9997C18.313 23.9997 17.9739 23.8592 17.7239 23.6091C17.4738 23.3591 17.3333 23.02 17.3333 22.6663V14.6663C17.3333 14.3127 17.4738 13.9736 17.7239 13.7235C17.9739 13.4735 18.313 13.333 18.6667 13.333C19.0203 13.333 19.3594 13.4735 19.6095 13.7235C19.8595 13.9736 20 14.3127 20 14.6663V22.6663C20 23.02 19.8595 23.3591 19.6095 23.6091C19.3594 23.8592 19.0203 23.9997 18.6667 23.9997Z" fill="#EDEBEA"/>
</svg>
