<svg width="20" height="20" viewBox="0 0 20 20" fill="none" xmlns="http://www.w3.org/2000/svg">
<g clip-path="url(#clip0_4484_6923)">
<path d="M11.7281 3.2382C12.3491 2.56539 12.6596 2.22899 12.9895 2.03276C13.7856 1.55929 14.7659 1.54457 15.5753 1.99393C15.9108 2.18016 16.2308 2.50709 16.8709 3.16096C17.511 3.81483 17.831 4.14176 18.0133 4.48443C18.4532 5.31126 18.4388 6.31265 17.9753 7.12591C17.7832 7.46296 17.4539 7.78014 16.7953 8.4145L8.95888 15.9622C7.71075 17.1644 7.08669 17.7655 6.30674 18.0701C5.52679 18.3747 4.66936 18.3523 2.95449 18.3075L2.72117 18.3014C2.19911 18.2877 1.93808 18.2809 1.78634 18.1087C1.63461 17.9365 1.65532 17.6706 1.69675 17.1388L1.71925 16.85C1.83586 15.3533 1.89417 14.6049 2.18644 13.9322C2.47872 13.2594 2.98288 12.7132 3.99121 11.6207L11.7281 3.2382Z" stroke="#4A4C56" stroke-width="1.5" stroke-linejoin="round"/>
<path d="M10.8333 3.33301L16.6666 9.16634" stroke="#4A4C56" stroke-width="1.5" stroke-linejoin="round"/>
<path d="M11.6667 18.333L18.3334 18.333" stroke="#4A4C56" stroke-width="1.5" stroke-linecap="round" stroke-linejoin="round"/>
</g>
<defs>
<clipPath id="clip0_4484_6923">
<rect width="20" height="20" fill="white"/>
</clipPath>
</defs>
</svg>
