<svg width="94" height="76" viewBox="0 0 94 76" fill="none" xmlns="http://www.w3.org/2000/svg">
<path d="M37.1169 39L44.1109 21.164H47.8289L54.8489 39H51.7289L50.1429 34.866H41.6929L40.1069 39H37.1169ZM42.6289 32.396H49.1809L47.1789 27.17C47.1269 27.014 47.0489 26.7973 46.9449 26.52C46.8409 26.2427 46.7283 25.9393 46.6069 25.61C46.5029 25.2807 46.3903 24.9513 46.2689 24.622C46.1649 24.2753 46.0696 23.9633 45.9829 23.686H45.8269C45.7229 24.0153 45.5929 24.4053 45.4369 24.856C45.2809 25.3067 45.1249 25.74 44.9689 26.156C44.8303 26.572 44.7089 26.91 44.6049 27.17L42.6289 32.396Z" fill="white" fill-opacity="0.65"/>
<circle cx="47.5" cy="36" r="36" fill="#328B7F" fill-opacity="0.4"/>
<path d="M43.3335 31C42.3163 31.003 41.7533 31.0274 41.2908 31.2215C40.6428 31.4935 40.1152 31.9959 39.8069 32.6342C39.5553 33.1553 39.5141 33.8229 39.4318 35.1581L39.3027 37.2504C39.098 40.5707 38.9956 42.2309 39.9699 43.2819C40.9442 44.3329 42.5856 44.3329 45.8684 44.3329H49.1319C52.4147 44.3329 54.0561 44.3329 55.0304 43.2819C56.0047 42.2309 55.9023 40.5707 55.6975 37.2504L55.5685 35.1581C55.4862 33.8229 55.445 33.1553 55.1934 32.6342C54.8851 31.9959 54.3575 31.4935 53.7095 31.2215C53.247 31.0274 52.684 31.003 51.6668 31" stroke="white" stroke-width="1.5" stroke-linecap="round"/>
<path d="M51.6667 31.8337L50.9285 29.9882C50.61 29.192 50.3329 28.2887 49.5139 27.8833C49.077 27.667 48.5514 27.667 47.5 27.667C46.4487 27.667 45.923 27.667 45.4862 27.8833C44.6672 28.2887 44.3901 29.192 44.0716 29.9882L43.3334 31.8337" stroke="white" stroke-width="1.5" stroke-linecap="round" stroke-linejoin="round"/>
<path d="M50.4167 37.6667C50.4167 39.2775 49.1109 40.5833 47.5 40.5833C45.8892 40.5833 44.5834 39.2775 44.5834 37.6667C44.5834 36.0558 45.8892 34.75 47.5 34.75C49.1109 34.75 50.4167 36.0558 50.4167 37.6667Z" stroke="white" stroke-width="1.5"/>
<path d="M47.4998 31H47.5073" stroke="white" stroke-width="2" stroke-linecap="round" stroke-linejoin="round"/>
<circle cx="75.5" cy="64" r="11" fill="#328B7F" stroke="white" stroke-width="2"/>
<path d="M75.5 58.8574V69.1431" stroke="white" stroke-linecap="round"/>
<path d="M80.6429 64L70.3572 64" stroke="white" stroke-linecap="round"/>
</svg>
