<svg width="18" height="18" viewBox="0 0 18 18" fill="none" xmlns="http://www.w3.org/2000/svg">
<path d="M1.0835 8.99967C1.0835 5.26772 1.0835 3.40175 2.24287 2.24238C3.40223 1.08301 5.26821 1.08301 9.00016 1.08301C12.7321 1.08301 14.5981 1.08301 15.7575 2.24238C16.9168 3.40175 16.9168 5.26772 16.9168 8.99967C16.9168 12.7316 16.9168 14.5976 15.7575 15.757C14.5981 16.9163 12.7321 16.9163 9.00016 16.9163C5.26821 16.9163 3.40223 16.9163 2.24287 15.757C1.0835 14.5976 1.0835 12.7316 1.0835 8.99967Z" stroke="#359AF3" stroke-width="1.5"/>
<path d="M9.20199 13.1665V8.99984C9.20199 8.607 9.20199 8.41058 9.07995 8.28854C8.95791 8.1665 8.76149 8.1665 8.36865 8.1665" stroke="#359AF3" stroke-width="1.5" stroke-linecap="round" stroke-linejoin="round"/>
<path d="M8.99349 5.6665H9.00098" stroke="#359AF3" stroke-width="2" stroke-linecap="round" stroke-linejoin="round"/>
</svg>
