<svg width="20" height="20" viewBox="0 0 20 20" fill="none" xmlns="http://www.w3.org/2000/svg">
<path d="M10 13.7497V12.083" stroke="#4A4C56" stroke-width="1.5" stroke-linecap="round"/>
<path d="M3.55652 15.704C3.74392 17.0958 4.89678 18.1863 6.29972 18.2508C7.48024 18.305 8.67943 18.3333 10 18.3333C11.3206 18.3333 12.5198 18.305 13.7003 18.2508C15.1032 18.1863 16.2561 17.0958 16.4435 15.704C16.5658 14.7956 16.6667 13.8647 16.6667 12.9167C16.6667 11.9686 16.5658 11.0378 16.4435 10.1294C16.2561 8.73752 15.1032 7.64707 13.7003 7.58258C12.5198 7.52831 11.3206 7.5 10 7.5C8.67943 7.5 7.48024 7.52831 6.29972 7.58258C4.89678 7.64707 3.74392 8.73752 3.55652 10.1294C3.43421 11.0378 3.33334 11.9686 3.33334 12.9167C3.33334 13.8647 3.43421 14.7956 3.55652 15.704Z" stroke="#4A4C56" stroke-width="1.5"/>
<path d="M6.25 7.50033V5.41699C6.25 3.34592 7.92893 1.66699 10 1.66699C12.0711 1.66699 13.75 3.34592 13.75 5.41699V7.50033" stroke="#4A4C56" stroke-width="1.5" stroke-linecap="round" stroke-linejoin="round"/>
</svg>
