<svg width="73" height="72" viewBox="0 0 73 72" fill="none" xmlns="http://www.w3.org/2000/svg">
<rect x="1" y="0.5" width="71" height="71" rx="35.5" fill="#ED544E"/>
<rect x="1" y="0.5" width="71" height="71" rx="35.5" fill="white" fill-opacity="0.94"/>
<rect x="1" y="0.5" width="71" height="71" rx="35.5" stroke="#ED544E"/>
<rect x="1" y="0.5" width="71" height="71" rx="35.5" stroke="white" stroke-opacity="0.8"/>
<path d="M40.5 43.5C40.4019 45.9693 38.3441 48.0659 35.5875 47.9985C34.9462 47.9828 34.1535 47.7592 32.5682 47.312C28.7528 46.2358 25.4407 44.4272 24.6461 40.3754C24.5 39.6306 24.5 38.7925 24.5 37.1163L24.5 34.8837C24.5 33.2075 24.5 32.3694 24.6461 31.6246C25.4407 27.5728 28.7528 25.7642 32.5682 24.688C34.1535 24.2408 34.9462 24.0172 35.5875 24.0015C38.3441 23.9341 40.4019 26.0307 40.5 28.5" stroke="#EB3D4D" stroke-width="1.5" stroke-linecap="round"/>
<path d="M33.8333 36.0003H48.4999M33.8333 36.0003C33.8333 35.0667 36.4923 33.3224 37.1666 32.667M33.8333 36.0003C33.8333 36.934 36.4923 38.6783 37.1666 39.3337" stroke="#EB3D4D" stroke-width="1.5" stroke-linecap="round" stroke-linejoin="round"/>
</svg>
