<svg width="20" height="20" viewBox="0 0 20 20" fill="none" xmlns="http://www.w3.org/2000/svg">
<path d="M6.66667 8.33317H13.3333M6.66667 11.6665H13.3333M6.66667 14.9998H10M6.66667 3.33317C6.66667 4.25365 7.41286 4.99984 8.33333 4.99984H11.6667C12.5871 4.99984 13.3333 4.25365 13.3333 3.33317M6.66667 3.33317C6.66667 2.4127 7.41286 1.6665 8.33333 1.6665H11.6667C12.5871 1.6665 13.3333 2.4127 13.3333 3.33317M6.66667 3.33317H5.83333C3.99238 3.33317 2.5 4.82555 2.5 6.6665V14.9998C2.5 16.8408 3.99238 18.3332 5.83333 18.3332H14.1667C16.0076 18.3332 17.5 16.8408 17.5 14.9998V6.6665C17.5 4.82555 16.0076 3.33317 14.1667 3.33317H13.3333" stroke="#328B7F" stroke-linecap="round"/>
</svg>
